<svg width="21" height="21" viewBox="0 0 21 21" fill="none" xmlns="http://www.w3.org/2000/svg">
<path d="M18.0869 3.2312C16.1048 1.16232 13.3623 -0.00525404 10.4972 1.77752e-05C4.70708 -0.0072749 0.00730099 4.68064 8.31236e-06 10.4708C-0.00359409 13.3338 1.16385 16.0738 3.23119 18.0545C3.23721 18.0604 3.23945 18.0694 3.24543 18.0747C3.30614 18.1332 3.37212 18.1827 3.43363 18.2389C3.60233 18.3889 3.77103 18.5441 3.94873 18.6888C4.04393 18.7638 4.14291 18.8387 4.24039 18.9077C4.40834 19.0329 4.5763 19.1581 4.75172 19.2736C4.87095 19.3486 4.99391 19.4235 5.11609 19.4985C5.27802 19.596 5.43925 19.6942 5.60645 19.7834C5.74818 19.8584 5.89284 19.9229 6.03681 19.9911C6.19426 20.0661 6.34947 20.141 6.51066 20.2085C6.67184 20.276 6.83382 20.3285 6.99724 20.387C7.16067 20.4454 7.30165 20.4994 7.45835 20.5474C7.63531 20.6006 7.81675 20.6419 7.99669 20.6861C8.14663 20.7228 8.29209 20.7648 8.44655 20.7948C8.65347 20.8361 8.86342 20.8623 9.07337 20.8908C9.2031 20.9088 9.3298 20.9343 9.46098 20.9471C9.8044 20.9808 10.1508 20.9996 10.5001 20.9996C10.8495 20.9996 11.1959 20.9808 11.5393 20.9471C11.6705 20.9343 11.7972 20.9088 11.9269 20.8908C12.1369 20.8623 12.3468 20.8361 12.5537 20.7948C12.7037 20.7648 12.8537 20.7198 13.0036 20.6861C13.1835 20.6419 13.365 20.6006 13.5419 20.5474C13.6986 20.4994 13.8501 20.441 14.003 20.387C14.156 20.333 14.3299 20.2745 14.4896 20.2085C14.6493 20.1425 14.806 20.0653 14.9635 19.9911C15.1074 19.9229 15.2522 19.8584 15.3938 19.7834C15.561 19.6942 15.7222 19.596 15.8842 19.4985C16.0064 19.4235 16.1294 19.3553 16.2486 19.2736C16.424 19.1581 16.592 19.0329 16.7599 18.9077C16.8574 18.8327 16.9563 18.7652 17.0516 18.6888C17.2293 18.5463 17.398 18.3949 17.5667 18.2389C17.6281 18.1827 17.6941 18.1332 17.7549 18.0747C17.7608 18.0695 17.7631 18.0605 17.7691 18.0545C21.9503 14.0488 22.0925 7.41223 18.0869 3.2312ZM16.4017 17.2694C16.2652 17.3894 16.1243 17.5034 15.9818 17.6136C15.8979 17.6781 15.8139 17.7418 15.7276 17.8033C15.5919 17.9015 15.454 17.9945 15.3138 18.0837C15.2118 18.1489 15.1076 18.2119 15.0026 18.2734C14.8706 18.3484 14.7364 18.4233 14.6007 18.4983C14.4807 18.5598 14.3585 18.6176 14.2356 18.6745C14.1127 18.7315 13.9769 18.7922 13.8442 18.8455C13.7115 18.8987 13.5705 18.9489 13.4318 18.9954C13.3051 19.0389 13.1784 19.0839 13.0502 19.1221C12.9002 19.1671 12.7435 19.2038 12.5883 19.2414C12.4668 19.2698 12.3469 19.3021 12.2239 19.3261C12.0462 19.3606 11.8648 19.3846 11.6826 19.4093C11.5792 19.4228 11.4764 19.4416 11.3722 19.4521C11.0843 19.4798 10.7926 19.4963 10.4979 19.4963C10.2033 19.4963 9.91164 19.4798 9.62371 19.4521C9.5195 19.4416 9.41679 19.4228 9.31328 19.4093C9.1311 19.3846 8.94966 19.3606 8.77196 19.3261C8.64899 19.3021 8.52901 19.2699 8.40759 19.2414C8.25238 19.2039 8.09791 19.1664 7.94573 19.1221C7.81754 19.0839 7.6908 19.0389 7.5641 18.9954C7.4254 18.9475 7.28667 18.8987 7.15171 18.8455C7.01675 18.7922 6.8893 18.7338 6.76032 18.6745C6.63134 18.6153 6.51514 18.5598 6.3952 18.4983C6.2595 18.4279 6.12529 18.3536 5.99332 18.2734C5.88836 18.2119 5.78411 18.1489 5.68215 18.0837C5.54196 17.9945 5.40397 17.9015 5.26827 17.8033C5.18203 17.7418 5.09807 17.6781 5.01408 17.6136C4.8716 17.5034 4.73067 17.3887 4.59422 17.2694C4.56123 17.2447 4.53122 17.2132 4.49902 17.1847C4.53254 14.6341 6.17106 12.382 8.58753 11.5652C9.79579 12.1399 11.1986 12.1399 12.4069 11.5652C14.8233 12.382 16.4618 14.6341 16.4954 17.1847C16.4639 17.2132 16.4339 17.2417 16.4017 17.2694ZM7.88269 6.01156C8.6945 4.56778 10.523 4.05549 11.9668 4.86731C13.4105 5.67913 13.9228 7.50761 13.111 8.95139C12.8417 9.43042 12.4458 9.82624 11.9668 10.0956C11.963 10.0956 11.9585 10.0956 11.954 10.1001C11.7552 10.2108 11.5451 10.2998 11.3272 10.3656C11.2882 10.3768 11.2522 10.3918 11.211 10.4015C11.136 10.421 11.0573 10.4345 10.9801 10.448C10.8346 10.4734 10.6875 10.4882 10.5399 10.4923H10.4545C10.3069 10.4882 10.1598 10.4734 10.0143 10.448C9.93936 10.4345 9.85988 10.421 9.78344 10.4015C9.74368 10.3918 9.70845 10.3768 9.66724 10.3656C9.44938 10.2998 9.23926 10.2108 9.04042 10.1001L9.02694 10.0956C7.58316 9.28382 7.07087 7.45533 7.88269 6.01156ZM17.8255 15.6979C17.3443 13.4538 15.8665 11.5512 13.8112 10.5298C15.4914 8.69957 15.3697 5.8538 13.5394 4.17363C11.7092 2.49345 8.86342 2.61515 7.18325 4.44539C5.60373 6.16602 5.60373 8.80922 7.18325 10.5298C5.1279 11.5513 3.65013 13.4538 3.16898 15.6979C0.293912 11.6482 1.24618 6.03449 5.29594 3.15942C9.34571 0.284344 14.9594 1.23661 17.8345 5.28638C18.9152 6.80874 19.4954 8.62976 19.4945 10.4968C19.4945 12.3622 18.9109 14.1808 17.8255 15.6979Z" fill="#0054A6"/>
</svg>
