<svg width="148" height="17" viewBox="0 0 148 17" fill="none" xmlns="http://www.w3.org/2000/svg">
<path d="M15.7004 0H0V15.5047H15.7004V0Z" fill="#ED1D24"/>
<path d="M13.4674 5.41275H10.2375V2.25635H5.463V5.41275H2.23315V10.0916H5.463V13.248H10.2375V10.0916H13.4674V5.41275Z" fill="white"/>
<path d="M29.3549 9.53192H26.26L25.3238 13.2402H21.334L24.2251 2.14795H31.23C33.5705 2.14795 35.3024 3.46108 35.3024 5.14123C35.3024 8.1182 32.4911 9.53192 29.3549 9.53192ZM28.9887 4.19513H27.6257L26.7694 7.48747H27.8295C29.5807 7.48747 31.2493 7.16938 31.2493 5.47563C31.2493 4.55943 30.0075 4.19513 28.9887 4.19513Z" fill="#0054A6"/>
<path d="M45.5619 10.7797C45.237 11.9923 45.1764 12.7263 45.1351 13.2401H41.2664C41.327 12.8242 41.5115 12.1092 41.6519 11.4594C40.7956 12.5904 39.6969 13.4223 37.8659 13.4223C35.586 13.4223 34.5259 12.2913 34.5259 10.7118C34.5259 6.62013 39.1683 4.65723 43.0369 4.65723C44.4219 4.65723 46.2943 4.85569 47.0487 5.10581L45.5619 10.7797ZM42.3871 6.57119C40.534 6.57119 38.5184 8.15075 38.5184 10.3311C38.5184 10.9456 38.7828 11.4458 39.6391 11.4458C40.9002 11.4458 41.941 9.96684 42.489 8.12084L42.9378 6.63916C42.7533 6.5875 42.5495 6.57119 42.3871 6.57119Z" fill="#0054A6"/>
<path d="M57.8839 11.7938C56.8871 15.5347 55.1772 17.0001 50.1658 17.0001C48.5771 17.0001 47.0709 16.7663 46.1953 16.5352L46.8672 14.4908C47.9658 14.9393 49.0039 15.0726 49.9428 15.0726C52.5283 15.0726 53.4232 14.0748 53.872 12.6448L54.1584 11.7476C53.1809 12.778 52.1428 13.2429 50.4742 13.2429C48.1943 13.2429 47.115 12.1799 47.115 10.7145C47.115 6.60654 51.9198 4.67627 55.8105 4.67627C57.1129 4.67627 58.8861 4.87745 59.6599 5.10854L57.8839 11.7938ZM55.012 6.58751C53.1589 6.58751 51.102 8.16979 51.102 10.4127C51.102 11.0462 51.3251 11.5111 52.1594 11.5111C53.6876 11.5111 54.643 9.70042 55.0698 8.20242L55.5186 6.65548C55.3369 6.60654 55.1744 6.58751 55.012 6.58751Z" fill="#0054A6"/>
<path d="M70.1231 11.4296C69.9799 12.0114 69.8174 12.6449 69.7569 13.243H66.2131L66.4995 11.7613C65.6459 12.6775 64.5252 13.4251 62.7933 13.4251C61.1247 13.4251 59.9214 12.8596 59.9214 11.4296C59.9214 11.1305 59.9407 10.8315 60.0233 10.5324L61.4881 4.82861H65.2577L63.9553 9.88539C63.8947 10.1355 63.8341 10.4019 63.8341 10.6493C63.8341 11.1659 64.1397 11.4813 64.8722 11.4813C66.0534 11.4813 66.5821 10.5651 66.7858 9.75217L68.0469 4.82861H71.8137L70.1231 11.4296Z" fill="#0054A6"/>
<path d="M75.886 9.88229C75.8034 10.0318 75.8034 10.233 75.8034 10.3825C75.8034 11.4292 76.9847 11.7636 78.0833 11.7636C79.2425 11.7636 80.4871 11.4129 81.4426 10.8991L81.1782 12.7125C79.8538 13.229 78.4908 13.4275 76.8415 13.4275C74.479 13.4275 71.9761 12.7451 71.9761 10.4994C71.9761 7.05757 75.093 4.67871 79.0415 4.67871C80.8726 4.67871 83.1552 5.1273 83.1552 6.87542C83.1552 9.45002 78.3504 9.88229 75.886 9.88229ZM78.8185 6.32352C77.4748 6.32352 76.5772 7.43819 76.1504 8.36798C77.7199 8.36798 79.8373 8.0363 79.8373 7.03854C79.8373 6.52199 79.3885 6.32352 78.8185 6.32352Z" fill="#0054A6"/>
<path d="M100.098 13.2429H96.474L98.8365 4.09453L93.0734 13.2429H89.7142L88.7174 4.07822L86.3549 13.2429H82.8938L85.785 2.14795H91.6884L92.3823 9.73311L97.044 2.14795H102.989L100.098 13.2429Z" fill="#0054A6"/>
<path d="M106.598 9.88229C106.516 10.0318 106.516 10.233 106.516 10.3825C106.516 11.4292 107.697 11.7636 108.796 11.7636C109.958 11.7636 111.197 11.4129 112.155 10.8991L111.891 12.7125C110.566 13.229 109.203 13.4275 107.554 13.4275C105.191 13.4275 102.688 12.7451 102.688 10.4994C102.688 7.05757 105.803 4.67871 109.754 4.67871C111.585 4.67871 113.868 5.1273 113.868 6.87542C113.868 9.45002 109.06 9.88229 106.598 9.88229ZM109.531 6.32352C108.187 6.32352 107.29 7.43819 106.863 8.36798C108.432 8.36798 110.55 8.0363 110.55 7.03854C110.547 6.52199 110.101 6.32352 109.531 6.32352Z" fill="#0054A6"/>
<path d="M125.372 7.58799L123.907 13.2429H120.14L121.443 8.22145C121.503 7.95502 121.586 7.7049 121.586 7.45478C121.586 6.95726 121.302 6.62286 120.567 6.62286C119.386 6.62286 118.816 7.53634 118.612 8.35195L117.351 13.2429H113.584L115.294 6.65548C115.457 6.05737 115.6 5.45653 115.66 4.84211H119.223L118.898 6.3238C119.895 5.17651 120.895 4.67627 122.624 4.67627C124.254 4.67627 125.496 5.24176 125.496 6.67179C125.496 6.97085 125.455 7.26991 125.372 7.58799Z" fill="#0054A6"/>
<path d="M130.915 13.425C128.533 13.425 126.151 12.5768 126.151 10.3475C126.151 6.9056 129.023 4.67627 133.195 4.67627C135.576 4.67627 137.958 5.49188 137.958 7.73752C137.958 11.1631 135.067 13.425 130.915 13.425ZM132.644 6.62286C130.912 6.62286 130.097 9.01803 130.097 10.1653C130.097 10.8966 130.422 11.4784 131.421 11.4784C133.15 11.4784 134.007 9.08327 134.007 7.93599C134.01 7.18834 133.641 6.62286 132.644 6.62286Z" fill="#0054A6"/>
<path d="M147.265 6.85387C146.389 6.55481 145.453 6.35634 144.495 6.35634C143.845 6.35634 142.6 6.45694 142.6 7.15564C142.6 8.25399 147.202 8.13709 147.202 10.3501C147.202 12.8595 143.963 13.4277 141.502 13.4277C140.241 13.4277 138.999 13.2945 137.796 12.9954L138.487 11.0488C139.382 11.4485 140.359 11.6986 141.397 11.6986C142.11 11.6986 143.534 11.5654 143.534 10.8014C143.534 9.71937 139.035 9.88521 139.035 7.59063C139.035 5.2444 142.394 4.6626 144.674 4.6626C145.772 4.6626 146.934 4.82844 147.992 5.06225L147.265 6.85387Z" fill="#0054A6"/>
</svg>
